<?xml version="1.0" encoding="UTF-8" standalone="no"?> <svg id="Layer_1" data-name="Layer 1" xmlns="http://www.w3.org/2000/svg" viewBox="0 0 64 64"><path d="M59,28V5a3,3,0,0,0-3-3H31a3,3,0,0,0-3,3H8A3,3,0,0,0,5,8V21a3,3,0,0,0-3,3V59a3,3,0,0,0,3,3H59a3,3,0,0,0,3-3V31A3,3,0,0,0,59,28ZM7,8A1,1,0,0,1,8,7H28V9H19a3,3,0,0,0-3,3v9H7ZM18,27a1,1,0,0,1-1,1H7a1,1,0,0,1-1-1V26a1,1,0,0,1,1-1H17a1,1,0,0,1,1,1ZM32,57A12,12,0,1,1,44,45,12,12,0,0,1,32,57ZM50,28H23a1,1,0,0,1-1-1V24a3,3,0,0,0-3-3H18V12a1,1,0,0,1,1-1H49a1,1,0,0,1,1,1Zm7,0H52V12a3,3,0,0,0-3-3H30V5a1,1,0,0,1,1-1H56a1,1,0,0,1,1,1Z"/><path d="M35,15H23a1,1,0,0,0,0,2H35a1,1,0,0,0,0-2Z"/><path d="M35,19H23a1,1,0,0,0,0,2H35a1,1,0,0,0,0-2Z"/><path d="M23,25H35a1,1,0,0,0,0-2H23a1,1,0,0,0,0,2Z"/><path d="M45.293,15.293l-7,7a1,1,0,1,0,1.414,1.414l7-7a1,1,0,0,0-1.414-1.414Z"/><circle cx="45" cy="22" r="2"/><circle cx="40" cy="17" r="2"/><path d="M32,40a2,2,0,0,1,2,2,1,1,0,0,0,2,0,4,4,0,0,0-3-3.858V37a1,1,0,0,0-2,0v1.142A3.992,3.992,0,0,0,32,46a2,2,0,1,1-2,2,1,1,0,0,0-2,0,4,4,0,0,0,3,3.858V53a1,1,0,0,0,2,0V51.858A3.992,3.992,0,0,0,32,44a2,2,0,0,1,0-4Z"/></svg>